<?xml version="1.0" encoding="UTF-8" standalone="no"?>
<!-- Created with Inkscape (http://www.inkscape.org/) -->

<svg
   xmlns:dc="http://purl.org/dc/elements/1.1/"
   xmlns:cc="http://creativecommons.org/ns#"
   xmlns:rdf="http://www.w3.org/1999/02/22-rdf-syntax-ns#"
   xmlns:svg="http://www.w3.org/2000/svg"
   xmlns="http://www.w3.org/2000/svg"
   xmlns:xlink="http://www.w3.org/1999/xlink"
   xmlns:sodipodi="http://sodipodi.sourceforge.net/DTD/sodipodi-0.dtd"
   xmlns:inkscape="http://www.inkscape.org/namespaces/inkscape"
   width="313.60138"
   height="63.177704"
   id="svg2254"
   sodipodi:version="0.32"
   inkscape:version="0.47pre4 r22446"
   sodipodi:docname="kuba_information_icons_set.svg"
   inkscape:output_extension="org.inkscape.output.svg.inkscape"
   version="1.0"
   inkscape:export-filename="C:\joanna\Gfx\drawings_vector\admin\collections\kuba_information_icons_set.png"
   inkscape:export-xdpi="182.23772"
   inkscape:export-ydpi="182.23772">
  <defs
     id="defs3">
    <inkscape:perspective
       sodipodi:type="inkscape:persp3d"
       inkscape:vp_x="-50 : 600 : 1"
       inkscape:vp_y="0 : 1000 : 0"
       inkscape:vp_z="700 : 600 : 1"
       inkscape:persp3d-origin="300 : 400 : 1"
       id="perspective60" />
    <linearGradient
       y2="390.78342"
       x2="311.27377"
       y1="377.9527"
       x1="302.73621"
       gradientTransform="matrix(1.9519, 0, 0, 1.84182, -206.402, -329.778)"
       gradientUnits="userSpaceOnUse"
       id="linearGradient4733"
       xlink:href="#linearGradient4554"
       inkscape:collect="always" />
    <linearGradient
       gradientUnits="userSpaceOnUse"
       y2="390.49332"
       x2="414.38986"
       y1="376.13748"
       x1="401.93405"
       gradientTransform="scale(0.999946, 1.00005)"
       id="linearGradient4744"
       xlink:href="#linearGradient4738"
       inkscape:collect="always" />
    <linearGradient
       id="linearGradient4568">
      <stop
         id="stop4570"
         offset="0"
         style="stop-color: rgb(225, 43, 28); stop-opacity: 1;" />
      <stop
         id="stop4572"
         offset="1.0000000"
         style="stop-color: rgb(152, 11, 0); stop-opacity: 1;" />
    </linearGradient>
    <linearGradient
       y2="387.43924"
       x2="332.02466"
       y1="369.97995"
       x1="314.56537"
       gradientUnits="userSpaceOnUse"
       id="linearGradient4693"
       xlink:href="#linearGradient4568"
       inkscape:collect="always" />
    <linearGradient
       inkscape:collect="always"
       xlink:href="#linearGradient4554"
       id="linearGradient3711"
       gradientUnits="userSpaceOnUse"
       gradientTransform="matrix(1.9519, 0, 0, 1.84182, -428.714, -277.301)"
       x1="302.73621"
       y1="377.9527"
       x2="311.27377"
       y2="390.78342" />
    <linearGradient
       inkscape:collect="always"
       xlink:href="#linearGradient4886"
       id="linearGradient3709"
       gradientUnits="userSpaceOnUse"
       x1="314.56537"
       y1="369.97995"
       x2="332.02466"
       y2="387.43924" />
    <linearGradient
       inkscape:collect="always"
       xlink:href="#linearGradient4554"
       id="linearGradient3695"
       gradientUnits="userSpaceOnUse"
       gradientTransform="translate(-305.322, 52.4772)"
       x1="808.12592"
       y1="362.58139"
       x2="832.68341"
       y2="400.04047" />
    <linearGradient
       id="linearGradient4886">
      <stop
         id="stop4888"
         offset="0.0000000"
         style="stop-color: rgb(28, 151, 225); stop-opacity: 1;" />
      <stop
         id="stop4890"
         offset="1.0000000"
         style="stop-color: rgb(0, 103, 152); stop-opacity: 1;" />
    </linearGradient>
    <linearGradient
       inkscape:collect="always"
       xlink:href="#linearGradient4886"
       id="linearGradient3691"
       gradientUnits="userSpaceOnUse"
       gradientTransform="translate(-178.788, 253.002)"
       x1="838.01013"
       y1="-320.49728"
       x2="909.21588"
       y2="-321.47269" />
    <linearGradient
       id="linearGradient4738">
      <stop
         id="stop4740"
         offset="0.0000000"
         style="stop-color: rgb(255, 255, 255); stop-opacity: 0.726562;" />
      <stop
         id="stop4742"
         offset="1.0000000"
         style="stop-color: rgb(255, 255, 255); stop-opacity: 1;" />
    </linearGradient>
    <linearGradient
       id="linearGradient4554">
      <stop
         id="stop4556"
         offset="0.0000000"
         style="stop-color: rgb(255, 255, 255); stop-opacity: 1;" />
      <stop
         id="stop4558"
         offset="1.0000000"
         style="stop-color: rgb(255, 255, 255); stop-opacity: 0;" />
    </linearGradient>
    <linearGradient
       y2="359.15051"
       x2="745.21838"
       y1="328.40942"
       x1="714.00201"
       gradientTransform="matrix(0.901725, 0, 0, 1.10898, -143.062, 50.646)"
       gradientUnits="userSpaceOnUse"
       id="linearGradient6127"
       xlink:href="#linearGradient4554"
       inkscape:collect="always" />
    <linearGradient
       id="linearGradient5028">
      <stop
         style="stop-color: rgb(255, 253, 38); stop-opacity: 1;"
         offset="0.0000000"
         id="stop5030" />
      <stop
         style="stop-color: rgb(150, 127, 0); stop-opacity: 1;"
         offset="1.0000000"
         id="stop5032" />
    </linearGradient>
    <linearGradient
       y2="424.72763"
       x2="649.37592"
       y1="387.40463"
       x1="621.35413"
       gradientTransform="matrix(1.06143, 0, 0, 0.942122, -143.062, 50.646)"
       gradientUnits="userSpaceOnUse"
       id="linearGradient6125"
       xlink:href="#linearGradient5028"
       inkscape:collect="always" />
    <linearGradient
       inkscape:collect="always"
       xlink:href="#linearGradient4738"
       id="linearGradient2314"
       gradientUnits="userSpaceOnUse"
       gradientTransform="matrix(0.645848, 0, 0, 0.875833, 18.0749, 154.377)"
       x1="786.64636"
       y1="302.44009"
       x2="818.39136"
       y2="338.76443" />
    <linearGradient
       inkscape:collect="always"
       xlink:href="#linearGradient4738"
       id="linearGradient2316"
       gradientUnits="userSpaceOnUse"
       gradientTransform="matrix(0.638597, 0, 0, 1.56593, -305.377, 53.8182)"
       x1="1313.4297"
       y1="237.96057"
       x2="1333.0073"
       y2="258.76886" />
    <linearGradient
       inkscape:collect="always"
       xlink:href="#linearGradient4738"
       id="linearGradient2318"
       gradientUnits="userSpaceOnUse"
       gradientTransform="matrix(0.705519, 0, 0, 0.956752, -378.254, 132.783)"
       x1="786.64636"
       y1="302.44009"
       x2="818.39136"
       y2="338.76443" />
    <linearGradient
       inkscape:collect="always"
       xlink:href="#linearGradient4738"
       id="linearGradient2322"
       gradientUnits="userSpaceOnUse"
       gradientTransform="matrix(0.645848, 0, 0, 0.875833, -151.443, -50.6101)"
       x1="786.64636"
       y1="302.44009"
       x2="818.39136"
       y2="338.76443" />
    <linearGradient
       inkscape:collect="always"
       xlink:href="#linearGradient4554"
       id="linearGradient2325"
       gradientUnits="userSpaceOnUse"
       gradientTransform="matrix(0.901725, 0, 0, 1.10898, -312.58, -154.341)"
       x1="714.00201"
       y1="328.40942"
       x2="745.21838"
       y2="359.15051" />
    <linearGradient
       inkscape:collect="always"
       xlink:href="#linearGradient5028"
       id="linearGradient2328"
       gradientUnits="userSpaceOnUse"
       gradientTransform="matrix(1.06143, 0, 0, 0.942122, -312.58, -154.341)"
       x1="621.35413"
       y1="387.40463"
       x2="649.37592"
       y2="424.72763" />
    <linearGradient
       inkscape:collect="always"
       xlink:href="#linearGradient4554"
       id="linearGradient2332"
       gradientUnits="userSpaceOnUse"
       gradientTransform="translate(-399.013, -162.24)"
       x1="808.12592"
       y1="362.58139"
       x2="832.68341"
       y2="400.04047" />
    <linearGradient
       inkscape:collect="always"
       xlink:href="#linearGradient4738"
       id="linearGradient2336"
       gradientUnits="userSpaceOnUse"
       gradientTransform="matrix(0.638597, 0, 0, 1.56593, -399.067, -160.899)"
       x1="1313.4297"
       y1="237.96057"
       x2="1333.0073"
       y2="258.76886" />
    <linearGradient
       inkscape:collect="always"
       xlink:href="#linearGradient4886"
       id="linearGradient2339"
       gradientUnits="userSpaceOnUse"
       gradientTransform="translate(-396.865, 167.424)"
       x1="838.01013"
       y1="-320.49728"
       x2="909.21588"
       y2="-321.47269" />
    <linearGradient
       inkscape:collect="always"
       xlink:href="#linearGradient4738"
       id="linearGradient2344"
       gradientUnits="userSpaceOnUse"
       gradientTransform="matrix(0.705519, 0, 0, 0.956752, -290.58, -78.4396)"
       x1="786.64636"
       y1="302.44009"
       x2="818.39136"
       y2="338.76443" />
    <linearGradient
       inkscape:collect="always"
       xlink:href="#linearGradient4554"
       id="linearGradient2347"
       gradientUnits="userSpaceOnUse"
       gradientTransform="matrix(1.9519, 0, 0, 1.84182, -341.04, -488.523)"
       x1="302.73621"
       y1="377.9527"
       x2="311.27377"
       y2="390.78342" />
    <linearGradient
       inkscape:collect="always"
       xlink:href="#linearGradient4554"
       id="linearGradient2352"
       gradientUnits="userSpaceOnUse"
       gradientTransform="matrix(1.9519, 0, 0, 1.84182, -426.217, -488.523)"
       x1="302.73621"
       y1="377.9527"
       x2="311.27377"
       y2="390.78342" />
    <linearGradient
       inkscape:collect="always"
       xlink:href="#linearGradient4738"
       id="linearGradient2355"
       gradientUnits="userSpaceOnUse"
       gradientTransform="matrix(0.999946, 0, 0, 1.00005, -219.815, -158.745)"
       x1="401.93405"
       y1="376.13748"
       x2="414.38986"
       y2="390.49332" />
  </defs>
  <sodipodi:namedview
     id="base"
     pagecolor="#ffffff"
     bordercolor="#666666"
     borderopacity="1.0"
     inkscape:pageopacity="0.0"
     inkscape:pageshadow="2"
     inkscape:zoom="1.1084842"
     inkscape:cx="141.53239"
     inkscape:cy="24.218608"
     inkscape:current-layer="layer1"
     inkscape:document-units="px"
     inkscape:window-width="1198"
     inkscape:window-height="744"
     inkscape:window-x="40"
     inkscape:window-y="0"
     showgrid="false"
     inkscape:window-maximized="0" />
  <metadata
     id="metadata4">
    <rdf:RDF>
      <cc:Work
         rdf:about="">
        <dc:format>image/svg+xml</dc:format>
        <dc:type
           rdf:resource="http://purl.org/dc/dcmitype/StillImage" />
        <dc:title></dc:title>
        <dc:creator>
          <cc:Agent>
            <dc:title>http://openclipart.org/media/people/kuba</dc:title>
          </cc:Agent>
        </dc:creator>
        <dc:rights>
          <cc:Agent>
            <dc:title>Public Domain</dc:title>
          </cc:Agent>
        </dc:rights>
        <dc:source>http://openclipart.org/media/files/kuba/2051</dc:source>
      </cc:Work>
    </rdf:RDF>
  </metadata>
  <g
     id="layer1"
     inkscape:label="Layer 1"
     inkscape:groupmode="layer"
     transform="translate(-164.604, -196.709)">
    <path
       transform="matrix(1.89606, 0, 0, 1.89606, -426.217, -488.523)"
       d="m 339.53775,378.05789 c 0,7.71359 -6.25309,13.96668 -13.96667,13.96668 -7.71359,0 -13.96668,-6.25309 -13.96668,-13.96668 0,-7.71358 6.25309,-13.96668 13.96668,-13.96668 7.71358,0 13.96667,6.2531 13.96667,13.96668 z"
       sodipodi:ry="13.966679"
       sodipodi:rx="13.966679"
       sodipodi:cy="378.05789"
       sodipodi:cx="325.57108"
       id="path4531"
       style="overflow: visible; marker: none; fill: rgb(180, 40, 28); fill-opacity: 1; fill-rule: nonzero; stroke: none; stroke-width: 3.625; stroke-linecap: butt; stroke-linejoin: miter; stroke-miterlimit: 4; stroke-dashoffset: 0pt; stroke-opacity: 1; visibility: visible; display: inline;"
       sodipodi:type="arc"
       inkscape:export-filename="/home/worldmaker/repos/hce-bee/static/error.png"
       inkscape:export-xdpi="40.779999"
       inkscape:export-ydpi="40.779999" />
    <path
       transform="matrix(1.73118, 0, 0, 1.73118, -372.539, -426.191)"
       d="m 339.53775,378.05789 c 0,7.71359 -6.25309,13.96668 -13.96667,13.96668 -7.71359,0 -13.96668,-6.25309 -13.96668,-13.96668 0,-7.71358 6.25309,-13.96668 13.96668,-13.96668 7.71358,0 13.96667,6.2531 13.96667,13.96668 z"
       sodipodi:ry="13.966679"
       sodipodi:rx="13.966679"
       sodipodi:cy="378.05789"
       sodipodi:cx="325.57108"
       id="path4533"
       style="overflow: visible; marker: none; fill: url(#linearGradient4693) rgb(0, 0, 0); fill-opacity: 1; fill-rule: nonzero; stroke: rgb(255, 255, 255); stroke-width: 0.324922; stroke-linecap: butt; stroke-linejoin: miter; stroke-miterlimit: 4; stroke-dashoffset: 0pt; stroke-opacity: 1; visibility: visible; display: inline;"
       sodipodi:type="arc"
       inkscape:export-filename="/home/worldmaker/repos/hce-bee/static/error.png"
       inkscape:export-xdpi="40.779999"
       inkscape:export-ydpi="40.779999" />
    <path
       id="rect4574"
       d="M 177.62,219.88529 C 177.39715,220.10811 177.43907,220.45852 177.66188,220.68133 L 185.24531,228.26476 L 177.62,235.89009 C 177.39715,236.11292 177.39715,236.50521 177.62,236.72804 L 182.64769,241.75573 C 182.87051,241.97857 183.22092,241.93665 183.44373,241.71384 L 191.06906,234.08851 L 198.69439,241.71384 C 198.91722,241.93667 199.26761,241.97853 199.49043,241.75573 L 204.51812,236.72804 C 204.74097,236.50521 204.74097,236.11292 204.51812,235.89009 L 196.89281,228.26476 L 204.51812,220.63943 C 204.74097,220.4166 204.74093,220.10811 204.51812,219.88529 L 199.49043,214.8576 C 199.26761,214.63475 198.9172,214.59285 198.69439,214.81569 L 191.06906,222.44103 L 183.48563,214.8576 C 183.26281,214.63475 182.87051,214.63475 182.64769,214.8576 L 177.62,219.88529 z"
       style="overflow: visible; marker: none; fill: url(#linearGradient2355) rgb(0, 0, 0); fill-opacity: 1; fill-rule: nonzero; stroke: none; stroke-width: 0.616072; stroke-linecap: butt; stroke-linejoin: miter; stroke-miterlimit: 4; stroke-dashoffset: 0pt; stroke-opacity: 1; visibility: visible; display: inline;"
       inkscape:export-filename="/home/worldmaker/repos/hce-bee/static/error.png"
       inkscape:export-xdpi="40.779999"
       inkscape:export-ydpi="40.779999" />
    <path
       id="path4537"
       d="M 191.06906,204.13188 C 177.72231,204.13188 166.89426,214.95991 166.89428,228.30666 C 166.89428,234.71923 169.51122,240.44957 173.58975,244.77869 C 175.7086,227.2782 190.47927,213.67144 208.54837,213.67144 C 209.03558,213.67144 209.48798,213.7704 209.97042,213.78994 C 205.54899,208.03925 198.87835,204.13188 191.06906,204.13188 z"
       style="overflow: visible; marker: none; fill: url(#linearGradient2352) rgb(0, 0, 0); fill-opacity: 1; fill-rule: nonzero; stroke: none; stroke-width: 0.616072; stroke-linecap: butt; stroke-linejoin: miter; stroke-miterlimit: 4; stroke-dashoffset: 0pt; stroke-opacity: 1; visibility: visible; display: inline;"
       inkscape:export-filename="/home/worldmaker/repos/hce-bee/static/error.png"
       inkscape:export-xdpi="40.779999"
       inkscape:export-ydpi="40.779999" />
    <path
       transform="matrix(1.89606, 0, 0, 1.89606, -341.04, -488.523)"
       d="m 339.53775,378.05789 c 0,7.71359 -6.25309,13.96668 -13.96667,13.96668 -7.71359,0 -13.96668,-6.25309 -13.96668,-13.96668 0,-7.71358 6.25309,-13.96668 13.96668,-13.96668 7.71358,0 13.96667,6.2531 13.96667,13.96668 z"
       sodipodi:ry="13.966679"
       sodipodi:rx="13.966679"
       sodipodi:cy="378.05789"
       sodipodi:cx="325.57108"
       id="path4850"
       style="overflow: visible; marker: none; fill: rgb(22, 100, 150); fill-opacity: 1; fill-rule: nonzero; stroke: none; stroke-width: 3.625; stroke-linecap: butt; stroke-linejoin: miter; stroke-miterlimit: 4; stroke-dashoffset: 0pt; stroke-opacity: 1; visibility: visible; display: inline;"
       sodipodi:type="arc" />
    <path
       transform="matrix(1.73118, 0, 0, 1.73118, -287.362, -426.191)"
       d="m 339.53775,378.05789 c 0,7.71359 -6.25309,13.96668 -13.96667,13.96668 -7.71359,0 -13.96668,-6.25309 -13.96668,-13.96668 0,-7.71358 6.25309,-13.96668 13.96668,-13.96668 7.71358,0 13.96667,6.2531 13.96667,13.96668 z"
       sodipodi:ry="13.966679"
       sodipodi:rx="13.966679"
       sodipodi:cy="378.05789"
       sodipodi:cx="325.57108"
       id="path4852"
       style="overflow: visible; marker: none; fill: url(#linearGradient3709) rgb(0, 0, 0); fill-opacity: 1; fill-rule: nonzero; stroke: rgb(255, 255, 255); stroke-width: 0.685946; stroke-linecap: butt; stroke-linejoin: miter; stroke-miterlimit: 4; stroke-dashoffset: 0pt; stroke-opacity: 1; visibility: visible; display: inline;"
       sodipodi:type="arc" />
    <path
       id="path4854"
       d="M 276.24601,204.13173 C 262.89926,204.13173 252.07121,214.95976 252.07123,228.30651 C 252.07123,234.71908 254.68817,240.44942 258.7667,244.77854 C 260.88555,227.27805 275.65622,213.67129 293.72532,213.67129 C 294.21253,213.67129 294.66493,213.77025 295.14737,213.78979 C 290.72594,208.0391 284.0553,204.13173 276.24601,204.13173 z"
       style="overflow: visible; marker: none; fill: url(#linearGradient2347) rgb(0, 0, 0); fill-opacity: 1; fill-rule: nonzero; stroke: none; stroke-width: 0.616072; stroke-linecap: butt; stroke-linejoin: miter; stroke-miterlimit: 4; stroke-dashoffset: 0pt; stroke-opacity: 1; visibility: visible; display: inline;" />
    <path
       id="text4864"
       d="M 274.29085,240.84024 C 272.39661,240.84024 270.91194,242.32491 270.91194,244.11675 C 270.91194,245.95979 272.39661,247.44446 274.23965,247.44446 C 276.03149,247.44446 277.51616,245.95979 277.51616,244.11675 C 277.51616,242.32491 276.03149,240.84024 274.29085,240.84024 M 275.41715,237.8709 C 275.36595,233.26331 276.44106,231.52266 279.92235,230.19158 L 281.6118,229.57723 C 283.96679,228.7581 285.50266,227.73419 286.57776,226.45431 C 287.80645,224.81605 288.52319,222.76823 288.52319,220.77161 C 288.52319,217.75107 286.98733,214.93532 284.47875,213.45065 C 282.17495,212.06837 279.15441,211.24924 276.23627,211.24924 C 272.85738,211.24924 269.17129,212.32435 267.12348,213.91141 C 264.92207,215.65205 263.59099,217.90466 263.59099,219.95248 C 263.59099,222.10269 264.92207,223.68975 266.76511,223.68975 C 268.24978,223.68975 269.52967,222.51225 269.52967,221.23237 C 269.52967,220.72041 269.42727,220.41324 268.91532,219.33813 C 268.55695,218.67259 268.45456,218.26303 268.45456,217.69988 C 268.45456,215.24249 271.67988,213.29706 275.72432,213.29706 C 280.3831,213.29706 282.99408,215.85684 282.99408,220.31085 C 282.99408,223.1266 281.76539,225.4304 279.46159,227.01746 L 276.54345,229.01408 C 273.77889,230.85712 273.01096,232.34179 273.01096,235.6183 C 273.01096,236.28384 273.06215,236.84699 273.11335,237.8709 L 275.41715,237.8709"
       style="overflow: visible; marker: none; font-size: 51.1955px; font-style: normal; font-variant: normal; font-weight: normal; font-stretch: normal; letter-spacing: normal; text-anchor: start; fill: url(#linearGradient2344) rgb(0, 0, 0); fill-opacity: 1; fill-rule: nonzero; stroke: none; stroke-width: 1px; stroke-linecap: butt; stroke-linejoin: miter; stroke-miterlimit: 4; stroke-dashoffset: 0pt; stroke-opacity: 1; visibility: visible; display: inline; font-family: URW Bookman L;" />
    <rect
       transform="matrix(0.707107, 0.707107, -0.707107, 0.707107, 0, 0)"
       ry="6.0000057"
       rx="6.0000057"
       y="-178.46442"
       x="453.146"
       height="48.180386"
       width="48.180386"
       id="rect5057"
       style="overflow: visible; marker: none; fill: rgb(22, 100, 150); fill-opacity: 1; fill-rule: nonzero; stroke: none; stroke-width: 0.685946; stroke-linecap: butt; stroke-linejoin: miter; stroke-miterlimit: 4; stroke-dashoffset: 0pt; stroke-opacity: 1; visibility: visible; display: inline;" />
    <rect
       transform="matrix(0.707107, 0.707107, -0.707107, 0.707107, 0, 0)"
       ry="3.0000029"
       rx="3.0000029"
       y="-175.8028"
       x="455.80798"
       height="42.856972"
       width="42.856972"
       id="rect5059"
       style="overflow: visible; marker: none; fill: url(#linearGradient2339) rgb(0, 0, 0); fill-opacity: 1; fill-rule: nonzero; stroke: rgb(255, 255, 255); stroke-width: 1.1875; stroke-linecap: butt; stroke-linejoin: miter; stroke-miterlimit: 4; stroke-dashoffset: 0pt; stroke-opacity: 1; visibility: visible; display: inline;" />
    <path
       id="text5067"
       d="M 449.72958,220.52482 L 448.1132,220.52482 C 445.21324,221.04776 443.6444,221.28546 441.12475,221.47563 L 441.12475,222.90184 L 442.07556,222.99692 C 444.54766,223.23462 445.21323,224.09035 445.21323,226.94278 L 445.21323,238.11479 C 445.21323,240.72951 444.3575,241.82294 442.26572,242.06065 L 441.07721,242.15573 L 441.07721,243.58194 L 453.81806,243.58194 L 453.81806,242.15573 L 452.67708,242.06065 C 450.53777,241.82294 449.72958,240.72951 449.72958,238.11479 L 449.72958,220.52482 M 447.54272,212.49048 C 445.92634,212.49048 444.64275,213.77407 444.64275,215.34291 C 444.64275,216.95928 445.92634,218.24288 447.49517,218.24288 C 449.11155,218.24288 450.39514,216.95928 450.39514,215.39045 C 450.39514,213.82161 449.11155,212.49048 447.54272,212.49048"
       style="overflow: visible; marker: none; font-size: 47.5405px; font-style: normal; font-variant: normal; font-weight: normal; font-stretch: normal; letter-spacing: normal; text-anchor: start; fill: url(#linearGradient2336) rgb(0, 0, 0); fill-opacity: 1; fill-rule: nonzero; stroke: none; stroke-width: 1px; stroke-linecap: butt; stroke-linejoin: miter; stroke-miterlimit: 4; stroke-dashoffset: 0pt; stroke-opacity: 1; visibility: visible; display: inline; font-family: URW Bookman L;" />
    <path
       id="rect5098"
       d="M 446.61241,199.22918 C 445.84555,199.22918 445.07503,199.51658 444.48741,200.10418 L 418.42491,226.16668 C 417.2497,227.34189 417.2497,229.24146 418.42491,230.41668 L 435.08116,247.07293 C 435.12379,229.70568 446.8229,215.50799 461.89366,213.26043 L 448.73741,200.10418 C 448.1498,199.51657 447.37927,199.22918 446.61241,199.22918 z"
       style="overflow: visible; marker: none; fill: url(#linearGradient2332) rgb(0, 0, 0); fill-opacity: 1; fill-rule: nonzero; stroke: none; stroke-width: 1.1875; stroke-linecap: butt; stroke-linejoin: miter; stroke-miterlimit: 4; stroke-dashoffset: 0pt; stroke-opacity: 1; visibility: visible; display: inline;" />
    <path
       sodipodi:nodetypes="czzzzsz"
       id="path5333"
       d="M 356.37016,207.62622 L 335.43266,243.93872 C 332.67911,248.71429 335.40639,252.62622 340.55766,252.62622 L 382.46391,252.62622 C 387.57327,252.62622 389.99594,248.05296 387.62016,243.93872 L 366.65141,207.62622 C 363.84849,202.77229 359.19388,202.72897 356.37016,207.62622 z"
       style="overflow: visible; marker: none; fill: rgb(166, 167, 0); fill-opacity: 1; fill-rule: nonzero; stroke: none; stroke-width: 0.685946; stroke-linecap: butt; stroke-linejoin: miter; stroke-miterlimit: 4; stroke-dashoffset: 0pt; stroke-opacity: 1; visibility: visible; display: inline;"
       inkscape:export-filename="/home/worldmaker/repos/hce-bee/static/warning.png"
       inkscape:export-xdpi="44.389999"
       inkscape:export-ydpi="44.389999" />
    <path
       sodipodi:nodetypes="czzzzsz"
       id="path5335"
       d="M 356.73452,209.8017 L 337.60384,242.98059 C 334.52945,248.3126 336.27399,250.9184 342.28658,250.9184 L 380.5765,250.9184 C 386.28961,250.9184 388.48759,248.52182 385.28779,242.98059 L 366.12854,209.8017 C 363.25211,204.82046 359.64699,204.75051 356.73452,209.8017 z"
       style="overflow: visible; marker: none; fill: url(#linearGradient2328) rgb(0, 0, 0); fill-opacity: 1; fill-rule: nonzero; stroke: rgb(255, 255, 255); stroke-width: 0.685946; stroke-linecap: butt; stroke-linejoin: miter; stroke-miterlimit: 4; stroke-dashoffset: 0pt; stroke-opacity: 1; visibility: visible; display: inline;"
       inkscape:export-filename="/home/worldmaker/repos/hce-bee/static/warning.png"
       inkscape:export-xdpi="44.389999"
       inkscape:export-ydpi="44.389999" />
    <path
       id="path5337"
       d="M 361.45144,206.03418 C 359.82654,206.02544 358.18892,207.28983 356.73269,209.81543 L 337.60769,242.97168 C 334.5333,248.30369 336.2826,250.90918 342.29519,250.90918 L 345.26394,250.90918 C 345.26254,250.792 345.23269,250.68293 345.23269,250.56543 C 345.23268,235.25909 357.22486,222.76915 372.60769,221.00293 L 366.13894,209.81543 C 364.70071,207.32481 363.07634,206.04292 361.45144,206.03418 z"
       style="overflow: visible; marker: none; fill: url(#linearGradient2325) rgb(0, 0, 0); fill-opacity: 1; fill-rule: nonzero; stroke: none; stroke-width: 0.685946; stroke-linecap: butt; stroke-linejoin: miter; stroke-miterlimit: 4; stroke-dashoffset: 0pt; stroke-opacity: 1; visibility: visible; display: inline;"
       inkscape:export-filename="/home/worldmaker/repos/hce-bee/static/warning.png"
       inkscape:export-xdpi="44.389999"
       inkscape:export-ydpi="44.389999" />
    <path
       id="text5339"
       d="M 361.34058,241.66582 C 359.65343,241.66582 358.29432,243.02492 358.29432,244.66521 C 358.29432,246.35237 359.65343,247.71147 361.34058,247.71147 C 362.98087,247.71147 364.33998,246.35237 364.33998,244.66521 C 364.33998,243.02492 362.98087,241.66582 361.34058,241.66582 M 362.09043,238.94762 L 362.09043,237.49479 C 362.09043,235.7139 362.46536,232.24585 362.88715,230.04317 L 364.19938,223.66946 C 364.62117,221.51365 364.8555,219.87335 364.8555,218.88918 C 364.8555,216.17098 363.59013,214.57755 361.48118,214.57755 C 359.23164,214.57755 358.10686,216.12412 358.10686,219.31097 C 358.10686,220.34201 358.10686,220.34201 358.66925,223.52887 L 359.70029,229.66825 C 360.07521,231.68346 360.40327,235.66704 360.40327,237.44792 L 360.40327,238.94762 L 362.09043,238.94762"
       style="overflow: visible; marker: none; font-size: 46.8655px; font-style: normal; font-variant: normal; font-weight: normal; font-stretch: normal; letter-spacing: normal; text-anchor: start; fill: url(#linearGradient2322) rgb(0, 0, 0); fill-opacity: 1; fill-rule: nonzero; stroke: none; stroke-width: 1px; stroke-linecap: butt; stroke-linejoin: miter; stroke-miterlimit: 4; stroke-dashoffset: 0pt; stroke-opacity: 1; visibility: visible; display: inline; font-family: URW Bookman L;"
       inkscape:export-filename="/home/worldmaker/repos/hce-bee/static/warning.png"
       inkscape:export-xdpi="44.389999"
       inkscape:export-ydpi="44.389999" />
  </g>
</svg>
